HIERARCHY
ROOT Hips
{
	OFFSET -3.958830 18.904000 13.208200
	CHANNELS 6 Xposition Yposition Zposition Zrotation Yrotation Xrotation 
	JOINT LHipJoint
	{
		OFFSET 0.000000 0.000000 0.000000
		CHANNELS 3 Zrotation Yrotation Xrotation
		JOINT LeftUpLeg
		{
			OFFSET 1.800000 -1.400000 0.085000
			CHANNELS 3 Zrotation Yrotation Xrotation
			JOINT LeftLeg
			{
				OFFSET 2.215000 -6.000000 0.000000
				CHANNELS 3 Zrotation Yrotation Xrotation
				JOINT LeftFoot
				{
					OFFSET 2.500000 -6.900000 0.000000
					CHANNELS 3 Zrotation Yrotation Xrotation
					JOINT LeftToeBase
					{
						OFFSET 0.200000 -0.500000 1.950000
						CHANNELS 3 Zrotation Yrotation Xrotation
						End Site
						{
							OFFSET 0.000000 0.000000 0.000000
						}
					}
				}
			}
		}
	}
	JOINT RHipJoint
	{
		OFFSET 0.000000 0.000000 0.000000
		CHANNELS 3 Zrotation Yrotation Xrotation
		JOINT RightUpLeg
		{
			OFFSET -1.800000 -1.400000 0.085000
			CHANNELS 3 Zrotation Yrotation Xrotation
			JOINT RightLeg
			{
				OFFSET -2.215000 -6.000000 0.000000
				CHANNELS 3 Zrotation Yrotation Xrotation
				JOINT RightFoot
				{
					OFFSET -2.500000 -6.900000 0.000000
					CHANNELS 3 Zrotation Yrotation Xrotation
					JOINT RightToeBase
					{
						OFFSET -0.200000 -0.500000 1.950000
						CHANNELS 3 Zrotation Yrotation Xrotation
						End Site
						{
							OFFSET 0.000000 0.000000 0.000000
						}
					}
				}
			}
		}
	}
	JOINT LowerBack
	{
		OFFSET 0.000000 0.000000 0.000000
		CHANNELS 3 Zrotation Yrotation Xrotation
		JOINT Spine
		{
			OFFSET -0.087000 1.940000 -0.288900
			CHANNELS 3 Zrotation Yrotation Xrotation
			JOINT Spine1
			{
				OFFSET 0.000000 1.950000 0.060000
				CHANNELS 3 Zrotation Yrotation Xrotation
				JOINT Neck
				{
					OFFSET 0.000000 0.000000 0.000000
					CHANNELS 3 Zrotation Yrotation Xrotation
					JOINT Neck1
					{
						OFFSET 0.000000 1.600000 0.340000
						CHANNELS 3 Zrotation Yrotation Xrotation
						JOINT Head
						{
							OFFSET 0.000000 1.667000 -0.240000
							CHANNELS 3 Zrotation Yrotation Xrotation
							End Site
							{
								OFFSET 0.000000 0.000000 0.000000
							}
						}
					}
				}
				JOINT LeftShoulder
				{
					OFFSET 0.000000 0.000000 0.000000
					CHANNELS 3 Zrotation Yrotation Xrotation
					JOINT LeftArm
					{
						OFFSET 2.700000 1.550000 -0.730000
						CHANNELS 3 Zrotation Yrotation Xrotation
						JOINT LeftForeArm
						{
							OFFSET 5.450000 0.000000 0.000000
							CHANNELS 3 Zrotation Yrotation Xrotation
							JOINT LeftHand
							{
								OFFSET 3.450000 0.000000 0.000000
								CHANNELS 3 Zrotation Yrotation Xrotation
								JOINT LeftHandIndex1
								{
									OFFSET 0.750000 0.000000 0.000000
									CHANNELS 3 Zrotation Yrotation Xrotation
									End Site
									{
										OFFSET 0.000000 0.000000 0.000000
									}
								}
							}
						}
					}
				}
				JOINT RightShoulder
				{
					OFFSET 0.000000 0.000000 0.000000
					CHANNELS 3 Zrotation Yrotation Xrotation
					JOINT RightArm
					{
						OFFSET -2.700000 1.550000 -0.730000
						CHANNELS 3 Zrotation Yrotation Xrotation
						JOINT RightForeArm
						{
							OFFSET -5.450000 0.000000 0.000000
							CHANNELS 3 Zrotation Yrotation Xrotation
							JOINT RightHand
							{
								OFFSET -3.450000 0.000000 0.000000
								CHANNELS 3 Zrotation Yrotation Xrotation
								JOINT RightHandIndex1
								{
									OFFSET -0.750000 0.000000 0.000000
									CHANNELS 3 Zrotation Yrotation Xrotation
									End Site
									{
										OFFSET 0.000000 0.000000 0.000000
									}
								}
							}
						}
					}
				}
			}
		}
	}
}
MOTION
Frames: 8
Frame Time: 0.016667
1.806980 15.523240 -2.050950 -3.761813 16.966209 -21.610346 -15.459605 12.449548 4.560416 21.274618 0.425074 -40.847941 9.562997 11.074914 62.736301 0.416281 11.225916 0.390232 0.630060 -0.090150 0.826620 18.096819 -10.509069 2.002337 -29.613386 9.910265 -9.825959 2.459394 -17.517504 71.068716 -2.081277 -11.410671 0.614241 -0.136860 -0.184890 0.213980 -3.217045 -1.631844 -8.928613 4.232487 4.777746 37.543509 -7.756977 10.406098 9.670114 3.977917 -3.598394 -19.031665 -16.601675 6.147733 65.263650 6.029360 -3.771260 -15.789410 -4.555516 -29.559725 5.733855 7.058556 -15.129458 -9.809296 50.676107 -50.427808 -22.403747 -3.233094 2.477983 1.148090 -0.312010 0.228290 -0.024950 -2.430219 39.047148 10.042792 -8.590726 16.518168 -14.456422 -37.376673 36.790581 -10.326752 2.210935 -1.325883 -0.192170 0.130390 -0.035560 -0.512000 
1.835230 15.505100 -2.005050 -3.840406 16.980193 -21.590442 -15.470267 12.486086 4.620798 21.515069 0.579053 -40.912439 9.517404 11.271679 63.213184 0.469452 11.318096 0.412954 0.631790 -0.076640 0.844130 18.069787 -10.597445 1.874517 -29.443478 9.479212 -7.832643 2.460195 -17.175073 69.293942 -2.036309 -11.143392 0.736420 -0.137220 -0.159010 0.163900 -3.174447 -1.648380 -8.907770 4.698867 4.965795 36.140641 -7.265157 10.599965 9.608827 3.999988 -3.575242 -19.194430 -16.939060 6.617842 67.234264 5.109340 -3.607390 -14.847790 -5.616719 -29.381810 5.948820 6.341780 -14.558683 -9.135577 47.850465 -53.421043 -21.944773 -3.170186 2.382784 1.145520 -0.311350 0.230630 0.006290 -1.362680 38.828480 10.324560 -7.661144 16.863828 -13.964863 -37.239249 38.993262 -10.745790 2.158676 -1.247111 -0.214560 0.209460 -0.063910 -0.502720 
1.888140 15.454170 -1.914180 -3.818439 15.672562 -22.064988 -15.489041 12.497467 4.706563 22.821248 1.430166 -40.371531 9.110300 12.317600 65.025823 0.530620 11.822265 0.303322 0.633730 -0.093320 0.879940 18.043876 -10.802170 1.583974 -29.370717 8.761051 -3.962881 1.832215 -15.740157 65.195697 -1.856968 -10.559697 0.928520 -0.105110 -0.092950 0.145620 -3.104968 -1.511356 -8.819914 5.550325 5.585537 33.237041 -6.142067 11.137007 11.229495 3.902074 -3.394625 -17.949077 -15.615418 6.252391 66.585824 2.035620 -2.369830 -13.678520 -6.018618 -28.023063 5.567943 7.137028 -13.676192 -8.130800 42.659348 -57.352931 -20.523166 -3.176953 2.334236 1.124480 -0.249870 0.184600 0.025900 -1.143136 37.119708 9.926516 -7.213322 17.697087 -12.806080 -34.329119 40.987261 -10.113013 2.016422 -1.202681 -0.274970 0.287120 -0.064510 -0.521470 
1.982510 15.408480 -1.814550 -4.034436 13.726318 -23.428640 -15.389786 12.477154 4.710105 24.047936 2.397050 -39.252399 9.880927 12.826505 68.246644 0.590227 12.456361 0.107285 0.593710 -0.183720 0.877360 18.110190 -11.150081 1.340321 -29.259540 8.238692 0.836272 0.747163 -13.862611 59.998597 -1.640773 -9.837301 1.121585 -0.107020 -0.060220 0.148760 -3.351335 -1.051287 -8.730570 9.147544 5.362375 31.485608 -6.896154 11.543932 12.754954 4.200593 -3.923019 -18.127780 -16.950627 6.830277 67.009910 0.462220 -2.587770 -12.808430 -5.641626 -26.628941 5.597334 8.433536 -10.951868 -7.428700 43.038402 -57.960934 -20.838781 -3.210412 2.293767 1.169360 -0.229330 0.148750 -0.002950 -2.262403 35.933214 10.310070 -7.658853 15.807868 -12.657406 -34.482469 41.691603 -10.155967 1.973478 -1.213064 -0.347260 0.318150 -0.003490 -0.560270 
2.053920 15.369920 -1.715180 -4.285509 11.805261 -24.823654 -15.297996 12.444647 4.632069 25.154070 3.496843 -37.937828 10.828198 13.047316 70.530701 0.735838 12.811845 0.009899 0.599660 -0.169670 0.853280 18.184838 -11.408457 1.232363 -29.213806 7.948783 4.282339 -0.262642 -12.561476 56.395135 -1.522455 -9.421313 1.261598 -0.106450 -0.048140 0.182810 -3.580343 -0.609042 -8.655409 12.256166 5.289226 29.749381 -7.261660 11.600059 13.969809 4.515882 -3.993334 -17.913653 -16.512014 6.311606 66.921996 -1.017540 -2.949010 -11.080550 -5.287673 -24.952801 5.837344 10.665865 -7.074288 -6.799946 50.081531 -55.449831 -23.090648 -3.257258 2.301203 1.118610 -0.194710 0.132750 0.008150 -3.365302 34.176001 10.273351 -10.110728 13.943749 -12.308581 -36.888112 41.233617 -10.751144 2.027564 -1.292412 -0.308740 0.278870 -0.003110 -0.536930 
2.140720 15.334390 -1.616030 -4.628213 11.159372 -26.333588 -15.195238 12.529303 4.387981 24.911062 3.656713 -36.154996 12.244994 12.241675 72.149417 0.851848 13.035991 0.027929 0.505440 -0.269720 0.759820 18.247956 -11.620461 1.245798 -29.995898 7.828043 7.334905 -0.578936 -12.207505 54.009524 -1.423355 -9.314594 1.327739 -0.137580 0.079340 0.172940 -3.818427 -0.384781 -8.528394 14.726947 4.275717 28.941958 -8.049896 10.630358 15.120618 4.970162 -5.271603 -17.610385 -17.953862 6.552717 61.902609 -2.022280 -3.066450 -7.812350 -3.984933 -22.447371 6.386121 11.603877 -1.179270 -6.640278 60.540804 -48.370674 -25.454201 -3.456394 2.346187 1.029110 -0.106870 0.032290 0.029180 -5.456634 32.419945 10.076412 -14.843478 10.523159 -12.361414 -39.333673 40.443359 -11.156767 2.116276 -1.392716 -0.351870 0.310880 0.041560 -0.499280 
2.209990 15.296170 -1.495060 -4.769090 10.362284 -26.378279 -15.123088 12.583630 4.171588 23.940853 4.018010 -35.767961 14.916130 10.820279 74.008073 0.983378 13.115902 0.074436 0.522770 -0.216890 0.763430 18.299995 -11.738899 1.299377 -30.977897 8.208647 8.433795 -0.231878 -12.367408 52.825102 -1.415833 -9.252476 1.394791 -0.114950 0.082140 0.103980 -3.987470 -0.172980 -8.445851 16.438393 4.305183 26.893918 -8.552729 10.430713 14.694106 5.273198 -5.677765 -17.587886 -18.515871 6.973574 61.290845 -2.580050 -2.534650 -7.306570 -2.238922 -19.478711 6.455381 12.124485 2.785468 -5.888422 67.956050 -41.053106 -25.071762 -3.499426 2.410710 1.001220 -0.117160 0.032500 0.079220 -7.725864 29.702705 10.165473 -17.007035 7.727624 -11.750017 -44.783598 39.144665 -12.658108 2.210101 -1.415388 -0.364360 0.365250 -0.019820 -0.480300 
2.274300 15.268180 -1.370310 -4.708837 10.328170 -26.320199 -15.180576 12.861249 4.007740 22.344139 3.722646 -35.501819 17.537047 8.855018 75.280005 0.962657 13.204156 -0.018302 0.502460 -0.296890 0.741620 18.195552 -11.706542 1.362723 -32.302272 8.179405 10.204893 0.347897 -12.707210 50.562729 -1.361573 -9.192488 1.335939 -0.143020 0.037310 0.171650 -3.762141 -0.596051 -8.407785 15.930564 5.233037 25.480997 -7.075467 10.811984 13.308927 5.173089 -5.219273 -17.557981 -17.779986 6.562184 61.418051 -1.625820 -3.159900 -5.950160 -1.414880 -17.497301 6.131149 14.204586 4.513814 -5.164669 71.983796 -30.891843 -20.628159 -3.642661 2.683148 1.035980 -0.124170 0.014490 0.021860 -8.264600 27.452887 10.867924 -19.183952 1.490537 -10.714618 -51.993895 38.634312 -14.499921 2.272314 -1.471719 -0.352440 0.237260 0.042290 -0.521690 
